<?xml version="1.0" encoding="UTF-8"?>
<svg version="1.1" xmlns="http://www.w3.org/2000/svg" width="2000" height="1032">
<path d="M0 0 C1.38308737 -0.00307895 1.38308737 -0.00307895 2.7941159 -0.0062201 C5.8887253 -0.01188169 8.98329008 -0.01043388 12.07790375 -0.00901413 C14.31714666 -0.01159825 16.55638912 -0.01461154 18.79563093 -0.01801753 C24.95331473 -0.02608533 31.11098687 -0.02787698 37.26867533 -0.028615 C43.22650352 -0.03027587 49.18432635 -0.03659422 55.14215126 -0.04269341 C71.10192844 -0.05874215 87.06170466 -0.0646555 103.02148846 -0.06944216 C110.5742516 -0.07177933 118.12701399 -0.07538212 125.67977654 -0.07913754 C151.54279324 -0.09197232 177.40580953 -0.10269135 203.26882935 -0.10614014 C204.89192151 -0.10636177 206.51501367 -0.10658355 208.13810584 -0.10680549 C209.76507868 -0.10702613 211.39205153 -0.10724661 213.01902437 -0.10746694 C216.28291353 -0.10790948 219.54680268 -0.1083566 222.81069183 -0.10880661 C223.61994467 -0.108916 224.4291975 -0.10902539 225.26297315 -0.1091381 C251.49634219 -0.11276781 277.72968358 -0.12868502 303.96304203 -0.15199697 C331.7100804 -0.17660888 359.45710298 -0.19031362 387.20415258 -0.19150805 C390.25180658 -0.1916795 393.29946057 -0.19189493 396.34711456 -0.19214249 C397.47271008 -0.19222614 397.47271008 -0.19222614 398.62104491 -0.19231148 C410.68229534 -0.19346077 422.74351733 -0.20447237 434.80475817 -0.21902954 C446.93489997 -0.23341637 459.06500542 -0.2366192 471.19515342 -0.22858956 C477.7630033 -0.22453387 484.33077679 -0.22560312 490.89861679 -0.23964691 C496.91675346 -0.25239742 502.93472311 -0.25117802 508.95285958 -0.2390562 C511.12450607 -0.23710121 513.29616443 -0.24016839 515.46779424 -0.24890056 C539.20437483 -0.33826657 558.93997896 3.15049672 576.93471527 19.81892776 C594.13927568 38.11699837 595.99129286 59.10695773 595.94541168 83.08792496 C595.94843473 85.32735912 595.95232498 87.56679225 595.95700425 89.80622357 C595.96727318 95.94122461 595.96510522 102.07616713 595.96082366 108.21117294 C595.95860827 114.15412866 595.96577177 120.09707129 595.97258391 126.04002189 C595.98780149 139.69052334 595.98953129 153.3410062 595.98706088 166.99151436 C595.98522622 177.53458071 595.98699146 188.07764098 595.99128532 198.62070656 C595.99188773 200.13693326 595.99248893 201.65315995 595.99308893 203.16938665 C595.99399621 205.4543661 595.99490488 207.73934555 595.99582128 210.024325 C596.00424746 231.26123273 596.00858882 252.49813817 596.00441456 273.73504734 C596.00425818 274.53516999 596.00410181 275.33529265 596.00394069 276.15966144 C596.00313494 280.21473835 596.00228917 284.26981525 596.00142739 288.32489214 C596.0012563 289.13020234 596.00108521 289.93551254 596.00090894 290.76522608 C596.00056229 292.39375767 596.00021376 294.02228925 595.99986336 295.65082084 C595.9945066 320.98868991 596.00243664 346.32652417 596.02089691 371.66438675 C596.04162685 400.15067893 596.05233775 428.63694956 596.04832143 457.12324971 C596.0479261 460.16240036 596.04756455 463.20155102 596.04722404 466.24070168 C596.04713331 466.98898304 596.04704258 467.7372644 596.0469491 468.50822095 C596.04578463 479.78911437 596.05241998 491.06998598 596.06303596 502.35087395 C596.07510155 515.18501908 596.07663127 528.01911624 596.0642458 540.8532621 C596.0582112 547.39886639 596.05725578 553.944396 596.0692482 560.48999596 C596.08010873 566.48758271 596.07700138 572.48499755 596.06298652 578.48257627 C596.06034009 580.64666925 596.06270435 582.81077572 596.07072238 584.97485546 C596.15387159 609.10074933 592.57877092 628.68988145 575.37221527 646.88142776 C562.14343406 659.54487644 545.05314318 665.47646132 526.94061089 665.38869667 C526.00863721 665.39220275 525.07666353 665.39570882 524.11644822 665.39932114 C521.00611735 665.40859511 517.89597536 665.40372215 514.7856369 665.3988533 C512.52801729 665.40259158 510.27039897 665.4071938 508.01278269 665.41258395 C501.8181887 665.42480746 495.62364874 665.42455423 489.42904544 665.4221952 C483.43130313 665.42182882 477.43357912 665.43081406 471.43584475 665.43942097 C457.65580655 665.45874375 443.87578325 665.46438856 430.09573309 665.46553509 C419.4515593 665.46645491 408.80739134 665.47057541 398.16321945 665.47693634 C395.09697839 665.47873149 392.03073733 665.48051112 388.96449625 665.4822861 C387.82100877 665.48294924 387.82100877 665.48294924 386.65442053 665.48362578 C365.21675207 665.49593109 343.77908564 665.50382723 322.3414135 665.50293922 C321.12949785 665.50289249 321.12949785 665.50289249 319.89309905 665.50284481 C315.79830571 665.5026786 311.70351237 665.50248052 307.60871904 665.50227539 C306.38890646 665.50221556 306.38890646 665.50221556 305.14445121 665.50215451 C303.49994578 665.50207364 301.85544035 665.50199004 300.21093492 665.50190373 C274.63169704 665.50067854 249.0525122 665.51568685 223.47328949 665.54304886 C194.72001629 665.57379363 165.96677794 665.5909799 137.21348727 665.58912241 C134.14536007 665.58897316 131.07723288 665.58887574 128.00910568 665.58881378 C127.25368299 665.58879047 126.4982603 665.58876716 125.71994601 665.58874315 C113.58187451 665.58868169 101.4438492 665.60143416 89.30579142 665.61867831 C77.09869352 665.6356614 64.89166294 665.63758774 52.68455975 665.62445967 C46.07604288 665.61773509 39.467657 665.61780061 32.85914612 665.63516617 C26.80278851 665.65091681 20.74672963 665.64801248 14.69037922 665.6305979 C12.50601895 665.62753244 10.32163628 665.63114312 8.13730244 665.64231806 C-14.76844373 665.7516887 -34.23399666 661.79673317 -51.31528473 645.13142776 C-67.41044749 627.00212121 -69.77325038 607.95120521 -69.69623566 584.8134346 C-69.69969571 582.5469622 -69.7044626 580.28049148 -69.71041739 578.01402426 C-69.72290917 571.80898365 -69.7167652 565.60408196 -69.70745873 559.39904094 C-69.70136005 553.38713649 -69.70936961 547.37526073 -69.71690083 541.36336197 C-69.73267031 528.3141217 -69.73133996 515.26492559 -69.72266409 502.21568115 C-69.71510911 490.79588359 -69.7131512 479.37610219 -69.71673203 467.95630264 C-69.71696118 467.1979785 -69.71719034 466.43965435 -69.71742644 465.65835069 C-69.71836049 462.57984983 -69.7193157 459.50134897 -69.72030573 456.42284813 C-69.72947697 427.56060168 -69.72117147 398.6983833 -69.70501504 369.83614119 C-69.69077886 344.20945735 -69.69205277 318.58281824 -69.70639801 292.9561348 C-69.72247163 264.14573496 -69.72882648 235.33535992 -69.71956122 206.52495623 C-69.71859911 203.45215512 -69.71766058 200.379354 -69.71673203 197.30655289 C-69.71649479 196.54998428 -69.71625756 195.79341567 -69.71601314 195.01392074 C-69.71260474 183.60298426 -69.71658406 172.19206573 -69.72417068 160.78113174 C-69.73275656 147.80275498 -69.73058671 134.82442916 -69.71432845 121.84605873 C-69.70630803 115.22576483 -69.70334663 108.60554163 -69.71327591 101.98524284 C-69.7222324 95.92179877 -69.71727396 89.85852928 -69.70134325 83.79510099 C-69.69799953 81.60483037 -69.69968027 79.41454492 -69.70697062 77.22428387 C-69.75066062 63.00461676 -69.43892247 49.84290177 -62.69028473 36.94392776 C-62.34473541 36.27103714 -61.9991861 35.59814651 -61.64316559 34.90486526 C-58.37803377 28.80624576 -54.31297441 23.91369979 -49.31528473 19.13142776 C-48.62950348 18.42631058 -47.94372223 17.72119339 -47.23715973 16.99470901 C-34.52598543 4.63662289 -17.31371514 -0.0360388 0 0 Z " fill="#7DDD65" transform="translate(732.3152847290039,9.868572235107422)"/>
<path d="M0 0 C23.07904306 18.72025507 39.98860497 45.38718043 44.4987793 75.0871582 C44.93693641 80.00646756 45.18056282 84.94247664 45.32836914 89.87890625 C45.47209416 93.72251197 45.57755411 95.71313292 47.7565918 98.98168945 C51.34016421 99.23184818 51.34016421 99.23184818 54.7565918 98.98168945 C55.89796352 96.698946 55.96571245 95.18295758 56.1159668 92.6418457 C57.28778103 75.56153102 60.23284076 59.50199556 67.7565918 43.98168945 C68.03341797 43.40499512 68.31024414 42.82830078 68.59545898 42.23413086 C83.16530334 12.26750504 108.79488412 -9.74802493 140.21362305 -20.6159668 C172.09626513 -30.92892627 205.07217711 -27.13458916 234.66674805 -12.07299805 C262.94119889 3.0212855 282.79484618 28.08410573 293.1315918 58.16918945 C293.48991089 59.20052002 293.48991089 59.20052002 293.85546875 60.25268555 C297.74287416 72.26523254 298.23735955 84.71035463 298.2565918 97.23168945 C298.25794128 98.0320462 298.25929077 98.83240295 298.26068115 99.65701294 C298.16328285 136.51498727 287.28392604 171.22173093 270.7565918 203.98168945 C270.32797852 204.8334375 269.89936523 205.68518555 269.45776367 206.56274414 C262.0498431 221.06756573 253.15266994 234.69177247 243.7565918 247.98168945 C243.44881805 248.66784332 243.14104431 249.35399719 242.82394409 250.0609436 C241.38628721 252.7529536 240.25532232 254.1946824 237.7565918 255.98168945 C231.76204345 257.17502529 225.83114244 257.00462579 219.7409668 256.91137695 C217.9607046 256.91381891 216.18044391 256.92007002 214.40020752 256.92996216 C209.7250011 256.94704537 205.05124278 256.91822722 200.3762207 256.87799072 C192.88005026 256.82234661 185.38358575 256.84127379 177.8872757 256.85126114 C175.2668206 256.84890025 172.64690526 256.82994861 170.02655029 256.80783081 C168.42842683 256.80163077 166.83030265 256.79560898 165.23217773 256.78979492 C164.50073547 256.77938675 163.76929321 256.76897858 163.01568604 256.758255 C161.26107353 256.75720889 159.50699532 256.86022487 157.7565918 256.98168945 C155.08666756 259.65161369 155.48459514 260.98408968 155.43774414 264.71655273 C155.40793961 266.51819382 155.40793961 266.51819382 155.37753296 268.35623169 C155.36598175 269.65833588 155.35443054 270.96044006 155.3425293 272.30200195 C155.3238241 273.64437053 155.30425117 274.98672727 155.28384399 276.32907104 C155.23244789 279.86355623 155.19286253 283.39807957 155.15570068 286.93273926 C155.11570766 290.53899633 155.06459396 294.14509368 155.0144043 297.7512207 C154.9175567 304.82792674 154.83318038 311.90473284 154.7565918 318.98168945 C153.63572678 318.99381973 153.63572678 318.99381973 152.49221802 319.00619507 C145.45837236 319.08405855 138.4247214 319.17132382 131.39113045 319.26921654 C127.77487161 319.31921375 124.15864248 319.36554316 120.54223633 319.40356445 C117.0537609 319.44037448 113.56553193 319.48672209 110.07726669 319.53975296 C108.09530407 319.56737056 106.11321108 319.58504724 104.13113403 319.60263062 C102.32949295 319.63243515 102.32949295 319.63243515 100.49145508 319.6628418 C99.43000275 319.67616547 98.36855042 319.68948914 97.27493286 319.70321655 C94.58664148 319.73490226 94.58664148 319.73490226 92.7565918 321.98168945 C92.56335098 324.88858239 92.56335098 324.88858239 92.75512695 328.33642578 C92.80091242 329.68925326 92.8460153 331.04210397 92.89053345 332.39497375 C92.91716694 333.11415796 92.94380043 333.83334217 92.971241 334.57431984 C93.12501355 339.20196558 93.16924506 343.83229586 93.23742104 348.46184254 C93.30353084 352.52153533 93.40459786 356.57442956 93.58276367 360.63085938 C94.68845682 386.78266729 94.68845682 386.78266729 89.88317871 393.66479492 C85.25927859 397.99661573 79.98230877 400.60164886 74.15325928 402.96969604 C71.09176518 404.26241265 68.49098497 405.99042958 65.7878418 407.91137695 C64.27782708 408.89376589 62.76744057 409.87558372 61.2565918 410.85668945 C60.47413086 411.37875977 59.69166992 411.90083008 58.88549805 412.4387207 C57.7543457 413.16768555 57.7543457 413.16768555 56.6003418 413.91137695 C55.95258789 414.33660645 55.30483398 414.76183594 54.63745117 415.19995117 C52.19212892 416.21629617 51.20727245 415.92575113 48.7565918 414.98168945 C47.25851788 414.20571119 45.78840188 413.37450617 44.3425293 412.50512695 C43.08327637 411.75054199 43.08327637 411.75054199 41.79858398 410.98071289 C40.91847656 410.44478516 40.03836914 409.90885742 39.1315918 409.35668945 C37.78822754 408.54506348 37.78822754 408.54506348 36.41772461 407.71704102 C30.35888124 404.02972019 24.44107256 400.23009087 18.7565918 395.98168945 C20.55501193 391.38333379 24.24616497 388.49979193 27.85620117 385.31176758 C30.65133403 382.6803975 31.75062913 381.0047435 32.72143555 377.2512207 C32.73883789 375.63280273 32.73883789 375.63280273 32.7565918 373.98168945 C30.85884219 371.6274706 30.85884219 371.6274706 27.62768555 371.8840332 C22.3601777 372.81134402 19.31299828 376.78283969 15.8190918 380.54418945 C15.13524414 381.25510742 14.45139648 381.96602539 13.74682617 382.69848633 C12.06898242 384.44672912 10.4067764 386.20738296 8.7565918 387.98168945 C4.1538932 386.43002212 0.63107045 383.94631804 -3.2434082 381.10668945 C-3.84668945 380.67227539 -4.4499707 380.23786133 -5.0715332 379.7902832 C-8.54020201 377.27926861 -11.92206325 374.68657265 -15.2434082 371.98168945 C-13.79874002 368.62262581 -11.99581664 366.56481492 -9.3293457 364.08325195 C-8.56879883 363.3562207 -7.80825195 362.62918945 -7.0246582 361.88012695 C-5.42024362 360.36426772 -3.80822159 358.85642018 -2.1887207 357.35668945 C-1.05176758 356.26227539 -1.05176758 356.26227539 0.1081543 355.14575195 C0.80763184 354.4904248 1.50710938 353.83509766 2.2277832 353.15991211 C4.25443777 350.27236628 4.18216079 348.43509652 3.7565918 344.98168945 C1.94442299 342.78834356 1.94442299 342.78834356 -0.55078125 342.56958008 C-4.32879321 343.14780877 -5.68337638 344.8523315 -8.32543945 347.57543945 C-8.78448166 348.0415564 -9.24352386 348.50767334 -9.71647644 348.98791504 C-11.17513729 350.47449039 -12.61542685 351.97751253 -14.0559082 353.48168945 C-15.04367662 354.49454456 -16.03259707 355.50627753 -17.02270508 356.5168457 C-19.44309304 358.9922619 -21.84730722 361.48273115 -24.2434082 363.98168945 C-31.75673197 360.34041321 -37.98724203 354.43919612 -44.2434082 348.98168945 C-42.80262159 345.62326895 -41.01789524 343.60690449 -38.3293457 341.15356445 C-37.56879883 340.43555664 -36.80825195 339.71754883 -36.0246582 338.9777832 C-34.42406381 337.48372188 -32.81203991 336.00180947 -31.1887207 334.5324707 C-26.96335971 330.70768664 -26.96335971 330.70768664 -24.72094727 325.65161133 C-24.66434177 323.21801241 -24.66434177 323.21801241 -25.2434082 319.98168945 C-28.18339016 319.46719261 -30.34988376 319.41703164 -32.9309082 321.0480957 C-35.13262455 322.94138196 -37.18449803 324.93243042 -39.2434082 326.98168945 C-39.81317383 327.54452637 -40.38293945 328.10736328 -40.9699707 328.68725586 C-45.08875054 332.75836463 -49.17421142 336.8610562 -53.2434082 340.98168945 C-61.24374481 335.38145383 -68.16750685 328.67994439 -75.2434082 321.98168945 C-72.11325847 318.20895844 -68.95069422 314.62151531 -65.41137695 311.2277832 C-64.7584668 310.6006543 -64.10555664 309.97352539 -63.43286133 309.32739258 C-62.08601934 308.04362221 -60.73167771 306.76767895 -59.37036133 305.49926758 C-55.59105923 301.84054142 -53.34907893 299.51720989 -53.2434082 293.98168945 C-53.2434082 293.32168945 -53.2434082 292.66168945 -53.2434082 291.98168945 C-56.49847167 291.33602546 -58.09099727 291.13339749 -61.2434082 291.98168945 C-65.25100038 295.08352917 -68.59540453 298.80162464 -71.9934082 302.54418945 C-73.827196 304.54022857 -75.6782578 306.51537514 -77.5402832 308.4855957 C-78.34820313 309.37061768 -79.15612305 310.25563965 -79.98852539 311.16748047 C-82.2434082 312.98168945 -82.2434082 312.98168945 -84.37133789 312.90600586 C-87.34071753 311.43990371 -89.46987696 309.14515705 -91.7434082 306.79418945 C-92.45303711 306.08939453 -92.45303711 306.08939453 -93.17700195 305.37036133 C-96.34338027 302.15574179 -98.78759495 298.75138895 -101.2434082 294.98168945 C-100.48608398 294.25054932 -99.72875977 293.51940918 -98.94848633 292.76611328 C-96.14043413 290.04860241 -93.34899653 287.31454243 -90.56225586 284.57519531 C-89.35415703 283.39223143 -88.14160747 282.21379505 -86.92456055 281.04003906 C-85.17516408 279.35133594 -83.44245736 277.64695933 -81.7121582 275.9387207 C-81.16531372 275.41768265 -80.61846924 274.89664459 -80.05505371 274.3598175 C-77.72754578 272.03406574 -76.33607969 270.52710378 -75.77661133 267.234375 C-76.06793824 264.79121254 -76.06793824 264.79121254 -78.2434082 262.98168945 C-81.08296599 262.3757356 -81.08296599 262.3757356 -84.2434082 262.98168945 C-86.44359541 264.68097817 -88.14196208 266.22205321 -90.0090332 268.23168945 C-90.78824127 269.03074707 -90.78824127 269.03074707 -91.58319092 269.84594727 C-93.23477213 271.54422618 -94.86464919 273.26153522 -96.4934082 274.98168945 C-98.13980264 276.69816365 -99.7904001 278.41029292 -101.44647217 280.11743164 C-102.47461012 281.17958517 -103.4965092 282.24781954 -104.51153564 283.32250977 C-105.71764035 284.57967906 -106.97625321 285.78608023 -108.2434082 286.98168945 C-108.9034082 286.98168945 -109.5634082 286.98168945 -110.2434082 286.98168945 C-111.72110038 285.34736191 -113.1261014 283.64692577 -114.4934082 281.91918945 C-118.00143254 277.53274222 -121.56517682 273.22580258 -125.2434082 268.98168945 C-123.65541968 264.98938523 -120.85078858 262.41527016 -117.7980957 259.5168457 C-116.71043537 258.45933557 -115.62320873 257.40137923 -114.53637695 256.34301758 C-112.82511723 254.68761864 -111.11027488 253.03643125 -109.38745117 251.39306641 C-107.72147501 249.79961704 -106.07154379 248.19089434 -104.4230957 246.5793457 C-103.90439911 246.09272964 -103.38570251 245.60611359 -102.85128784 245.10475159 C-100.57479328 242.86107132 -99.32142024 241.4554067 -98.79467773 238.25683594 C-99.06133276 235.79248866 -99.06133276 235.79248866 -101.2434082 233.98168945 C-104.07041436 233.35716298 -104.07041436 233.35716298 -107.2434082 233.98168945 C-109.534115 235.74810814 -111.33702746 237.37164969 -113.2980957 239.45043945 C-114.11771286 240.28279114 -114.11771286 240.28279114 -114.95388794 241.13195801 C-116.6900202 242.90158568 -118.40409653 244.69094044 -120.1184082 246.48168945 C-121.29409461 247.68748017 -122.47116377 248.8919243 -123.6496582 250.0949707 C-126.5304996 253.04184487 -129.39174029 256.00658641 -132.2434082 258.98168945 C-135.93597547 255.38642499 -138.9495234 251.56158911 -141.9934082 247.41918945 C-142.75331055 246.41082031 -142.75331055 246.41082031 -143.52856445 245.38208008 C-144.00680664 244.73303711 -144.48504883 244.08399414 -144.9777832 243.4152832 C-145.41316406 242.82803467 -145.84854492 242.24078613 -146.29711914 241.63574219 C-147.2434082 239.98168945 -147.2434082 239.98168945 -147.2434082 236.98168945 C-145.82299805 235.48266602 -145.82299805 235.48266602 -143.8293457 233.87231445 C-138.90717544 229.74628191 -134.39654413 225.28220496 -129.8684082 220.73168945 C-129.06274414 219.92989258 -128.25708008 219.1280957 -127.42700195 218.30200195 C-126.65743164 217.53114258 -125.88786133 216.7602832 -125.0949707 215.96606445 C-124.40226074 215.27222656 -123.70955078 214.57838867 -122.99584961 213.86352539 C-121.07160883 211.89851706 -121.07160883 211.89851706 -119.2434082 208.98168945 C-119.55847447 205.83946979 -119.55847447 205.83946979 -120.2434082 202.98168945 C-122.84475804 201.84727996 -122.84475804 201.84727996 -126.2434082 201.98168945 C-128.07288121 203.15555379 -128.07288121 203.15555379 -129.8371582 204.85668945 C-130.53647461 205.49678955 -131.23579102 206.13688965 -131.95629883 206.79638672 C-136.11792515 210.77276558 -140.19375882 214.82910578 -144.2434082 218.91918945 C-145.54858398 220.23113281 -145.54858398 220.23113281 -146.88012695 221.56958008 C-149.0035437 223.70466395 -151.12457198 225.84206151 -153.2434082 227.98168945 C-156.64146312 224.71999803 -158.77153968 221.59231431 -160.9934082 217.41918945 C-161.60700195 216.28352539 -162.2205957 215.14786133 -162.8527832 213.9777832 C-164.2434082 210.98168945 -164.2434082 210.98168945 -164.2434082 207.98168945 C-162.87792969 206.53759766 -162.87792969 206.53759766 -160.92700195 204.9699707 C-155.40848593 200.34424523 -150.38410848 195.2685049 -145.3059082 190.16918945 C-144.33927918 189.20613032 -143.3724833 188.24323864 -142.40551758 187.28051758 C-141.49737305 186.37108398 -140.58922852 185.46165039 -139.65356445 184.5246582 C-138.82993408 183.6998999 -138.00630371 182.8751416 -137.15771484 182.02539062 C-134.69691938 179.39826159 -134.26675091 178.55358579 -134.1184082 174.91918945 C-133.90692803 172.09270129 -133.90692803 172.09270129 -135.2434082 170.98168945 C-137.94353168 170.30818176 -137.94353168 170.30818176 -141.2434082 170.98168945 C-149.1063833 176.52447896 -155.65642907 184.36368721 -162.34887695 191.21411133 C-163.63858398 192.52025391 -163.63858398 192.52025391 -164.9543457 193.8527832 C-165.73084473 194.64612061 -166.50734375 195.43945801 -167.30737305 196.25683594 C-169.2434082 197.98168945 -169.2434082 197.98168945 -171.2434082 197.98168945 C-172.64412445 195.07669858 -174.00925778 192.15632998 -175.3684082 189.23168945 C-175.76672852 188.40668945 -176.16504883 187.58168945 -176.57543945 186.73168945 C-176.94282227 185.9324707 -177.31020508 185.13325195 -177.6887207 184.30981445 C-178.20716553 183.21008301 -178.20716553 183.21008301 -178.73608398 182.08813477 C-179.41204635 179.2814922 -178.70360066 178.43347392 -177.2434082 175.98168945 C-175.64292908 174.14743042 -175.64292908 174.14743042 -173.72753906 172.25463867 C-172.65148659 171.18365433 -172.65148659 171.18365433 -171.55369568 170.09103394 C-170.77969925 169.33049713 -170.00570282 168.56996033 -169.20825195 167.78637695 C-168.01746788 166.60339523 -168.01746788 166.60339523 -166.80262756 165.39651489 C-164.26675081 162.87845 -161.72429028 160.36717159 -159.1809082 157.85668945 C-156.63483592 155.33820581 -154.09022099 152.81829287 -151.54847717 150.29544067 C-149.96643845 148.72568933 -148.38173489 147.1586184 -146.79417419 145.5944519 C-146.07995804 144.88676666 -145.36574188 144.17908142 -144.62988281 143.44995117 C-143.9985997 142.82692108 -143.36731659 142.20389099 -142.71690369 141.5619812 C-140.56732032 139.25659996 -140.25603756 138.18375915 -140.0559082 134.98168945 C-139.91857036 131.86544621 -139.91857036 131.86544621 -142.2434082 129.98168945 C-145.49711965 129.84502748 -147.54403051 130.44215368 -150.1305542 132.43753052 C-152.31820898 134.47658499 -154.40773272 136.58473904 -156.4855957 138.7355957 C-157.63815353 139.89876564 -157.63815353 139.89876564 -158.81399536 141.08543396 C-161.26079927 143.56018293 -163.6896291 146.05176058 -166.1184082 148.54418945 C-167.77610622 150.22696978 -169.43494769 151.90862452 -171.0949707 153.58911133 C-175.15779915 157.70701097 -179.20601382 161.83885822 -183.2434082 165.98168945 C-185.56943688 162.49264644 -186.65458402 158.94778939 -187.8684082 154.98168945 C-188.21258789 153.89500977 -188.21258789 153.89500977 -188.5637207 152.78637695 C-189.50408876 149.75257047 -190.2434082 147.17625358 -190.2434082 143.98168945 C-188.6262207 142.5090332 -188.6262207 142.5090332 -186.3684082 140.91918945 C-181.69066517 137.44576331 -177.71610265 133.5524208 -173.6496582 129.3918457 C-170.95909201 126.69691171 -168.13159215 124.23214856 -165.23950195 121.7590332 C-162.18085359 119.03557918 -159.34892287 116.09554167 -156.47387695 113.1809082 C-154.39573121 111.13187833 -152.26490498 109.2002381 -150.0559082 107.29418945 C-149.41266602 106.7321582 -148.76942383 106.17012695 -148.10668945 105.59106445 C-146.89093564 104.5409794 -145.65956117 103.50863642 -144.41137695 102.49731445 C-142.12545978 100.50583626 -140.39812752 98.88860798 -139.8762207 95.8293457 C-139.8281548 93.36778098 -139.8281548 93.36778098 -140.2434082 89.98168945 C-143.07921521 89.43866258 -144.50140467 89.24578409 -147.2434082 89.98168945 C-149.73726265 91.98567963 -151.81774444 94.19262198 -153.9855957 96.54418945 C-155.99865105 98.71745336 -158.0487994 100.63228553 -160.3059082 102.54418945 C-163.79854251 105.53886401 -167.01694703 108.73606482 -170.2434082 112.01293945 C-172.18231822 113.921554 -174.18040371 115.70879497 -176.2434082 117.48168945 C-181.04746119 121.61298551 -185.54488585 126.06649743 -189.84887695 130.71606445 C-191.2434082 131.98168945 -191.2434082 131.98168945 -193.2434082 131.98168945 C-196.97065282 116.94711258 -196.97065282 116.94711258 -194.32526398 110.873806 C-191.01576522 105.88178552 -186.50875518 101.98549548 -182.0949707 97.9934082 C-180.71950471 96.67246066 -179.34907975 95.34624597 -177.98348999 94.01509094 C-174.40017792 90.54522314 -170.76115153 87.14067166 -167.10345459 83.74951172 C-161.2432605 78.29499752 -155.47640222 72.74167271 -149.70438766 67.1942234 C-147.68449276 65.26916159 -145.64251972 63.3702716 -143.59512329 61.47453308 C-142.35461737 60.30374069 -141.11447491 59.13256305 -139.87475586 57.9609375 C-139.30121872 57.44196396 -138.72768158 56.92299042 -138.13676453 56.38829041 C-135.49138122 53.8561756 -134.30566736 52.40575404 -133.76644897 48.73298645 C-133.9948493 45.84629236 -133.9948493 45.84629236 -136.2434082 43.98168945 C-138.59285305 43.39982098 -138.59285305 43.39982098 -141.2434082 43.98168945 C-143.30009003 45.57599879 -144.96576539 47.08034675 -146.75219727 48.9387207 C-147.54092224 49.72875992 -147.54092224 49.72875992 -148.34558105 50.53475952 C-150.0787142 52.27646627 -151.79357732 54.03508406 -153.5090332 55.79418945 C-154.70901743 57.0060398 -155.91018593 58.21671852 -157.11248779 59.42626953 C-160.27293154 62.6114635 -163.41850602 65.81094111 -166.56079102 69.01403809 C-171.0003741 73.53410123 -175.45996515 78.03444039 -179.91717529 82.53710938 C-182.2916523 84.93592154 -184.66053367 87.34006046 -187.02520752 89.74853516 C-188.10085719 90.84058955 -189.17651972 91.93263127 -190.25219727 93.0246582 C-190.74568665 93.52959808 -191.23917603 94.03453796 -191.74761963 94.55477905 C-192.89395832 95.71607245 -194.06595077 96.85195996 -195.2434082 97.98168945 C-195.5734082 97.98168945 -195.9034082 97.98168945 -196.2434082 97.98168945 C-196.27053172 95.58577908 -196.2903064 93.19017989 -196.3059082 90.79418945 C-196.31428711 90.1206543 -196.32266602 89.44711914 -196.33129883 88.75317383 C-196.37769698 79.24155243 -196.37769698 79.24155243 -193.64980221 76.21165943 C-192.98411 75.68401839 -192.3184178 75.15637735 -191.6325531 74.61274719 C-187.53109398 71.23237091 -183.76726325 67.64728513 -180.01708984 63.88476562 C-179.34453156 63.21395966 -178.67197327 62.54315369 -177.97903442 61.85202026 C-175.78471056 59.66205317 -173.5940118 57.46850214 -171.40356445 55.2746582 C-169.87054292 53.74231101 -168.33737302 52.21011222 -166.80406189 50.67805481 C-163.60602904 47.48149014 -160.4097969 44.28313882 -157.21484375 41.08349609 C-153.11351214 36.97643865 -149.00766833 32.8739259 -144.90049076 28.77271557 C-141.74094751 25.61677702 -138.58377888 22.45847164 -135.42733574 19.29943275 C-133.91334936 17.78477835 -132.39861719 16.27086903 -130.88313484 14.75771141 C-128.77432103 12.65142572 -126.66871973 10.54198122 -124.56396484 8.43164062 C-123.93492752 7.80462753 -123.3058902 7.17761444 -122.65779114 6.53160095 C-118.38943067 2.46123834 -118.38943067 2.46123834 -117.0559082 -3.01831055 C-116.91857036 -6.13455379 -116.91857036 -6.13455379 -119.2434082 -8.01831055 C-124.22900221 -8.00648415 -126.6116602 -6.22905164 -129.98799133 -2.89582825 C-130.5555162 -2.310327 -131.12304108 -1.72482574 -131.70776367 -1.12158203 C-132.32311478 -0.50696106 -132.93846588 0.10765991 -133.57246399 0.74090576 C-135.59725683 2.76917347 -137.60377758 4.81455477 -139.6105957 6.8605957 C-141.01340157 8.27272994 -142.41731769 9.68376206 -143.82229614 11.09373474 C-147.51263231 14.80313827 -151.18770567 18.52731194 -154.85980225 22.25476074 C-158.61138132 26.05753689 -162.37719975 29.84615348 -166.1418457 33.63598633 C-173.52303978 41.07076362 -180.88818734 48.52122218 -188.2434082 55.98168945 C-189.39516912 52.5264067 -189.1548718 52.13623874 -187.6887207 48.98950195 C-187.32584961 48.20824951 -186.96297852 47.42699707 -186.58911133 46.62207031 C-185.98486328 45.37695679 -185.98486328 45.37695679 -185.3684082 44.10668945 C-184.9578418 43.25405518 -184.54727539 42.4014209 -184.12426758 41.52294922 C-178.44342535 30.01273893 -171.12722085 20.24257394 -162.2434082 10.98168945 C-161.47383789 10.14895508 -160.70426758 9.3162207 -159.91137695 8.45825195 C-117.92666659 -35.62908526 -46.71925213 -36.61283976 0 0 Z " fill="#7DDD65" transform="translate(944.243408203125,127.018310546875)"/>
<path d="M0 0 C1.29295019 0.35553626 2.58591984 0.71100173 3.87890625 1.06640625 C35.69000357 10.14156342 63.2384108 29.8768221 81 58 C81.36174316 58.57073242 81.72348633 59.14146484 82.09619141 59.72949219 C87.5118146 68.41506426 91.45938804 77.42425401 95 87 C95.42410156 86.06800781 95.84820313 85.13601562 96.28515625 84.17578125 C113.17801945 47.31729709 137.58416187 19.22499149 176 4 C209.28724787 -8.21860804 246.32582062 -5.48459591 278.36328125 8.91796875 C291.3685423 15.03050288 302.62510088 23.03680323 313 33 C313.89460938 33.83144531 314.78921875 34.66289063 315.7109375 35.51953125 C338.59092006 57.40612521 353.49504052 89.23898956 354.375 120.984375 C355.38044339 172.70880971 339.36832474 220.86245836 313 265 C312.56333008 265.74040527 312.12666016 266.48081055 311.67675781 267.24365234 C304.55665916 279.2732877 296.58025014 291.22145205 287.43533325 301.81201172 C285.72909406 304.41296265 285.60740886 305.86507277 285.56762695 308.95214844 C285.53793571 310.42322052 285.53793571 310.42322052 285.50764465 311.92401123 C285.50125473 312.97518127 285.49486481 314.02635132 285.48828125 315.109375 C285.47033005 316.19132141 285.45237885 317.27326782 285.43388367 318.38800049 C285.37972364 321.84196074 285.34586597 325.29578235 285.3125 328.75 C285.27933204 331.09246723 285.24484287 333.43491616 285.20898438 335.77734375 C285.12399389 341.51810484 285.05566801 347.25888375 285 353 C286.1175341 352.99000725 286.1175341 352.99000725 287.25764465 352.97981262 C294.27628086 352.91971967 301.29482807 352.87403498 308.31364918 352.84456348 C311.92218303 352.8289025 315.53050444 352.80765685 319.13891602 352.77368164 C322.62078122 352.74110283 326.10244201 352.72315025 329.58444786 352.71536827 C331.56042097 352.70712144 333.53631175 352.68369962 335.51216125 352.66011047 C337.31368904 352.65977058 337.31368904 352.65977058 339.15161133 352.65942383 C340.21084305 352.65276199 341.27007477 352.64610016 342.36140442 352.63923645 C345 353 345 353 346.84225464 354.03726196 C348.65941873 357.11791959 348.40803977 360.26949712 348.37231445 363.74438477 C348.37596512 364.53164948 348.37961578 365.31891418 348.38337708 366.1300354 C348.39148772 368.73404464 348.37786968 371.33743266 348.36328125 373.94140625 C348.36276276 375.74836731 348.36328004 377.55532893 348.36479187 379.36228943 C348.36470213 383.14940815 348.35426753 386.93631408 348.33618164 390.72338867 C348.31347817 395.58498585 348.31295306 400.44627244 348.31969929 405.30790806 C348.32303558 409.03873978 348.31641588 412.76950029 348.30657005 416.50031853 C348.3027131 418.29333054 348.30157188 420.08635046 348.3031559 421.87936592 C348.30352548 424.38140169 348.29093729 426.88303437 348.2746582 429.38500977 C348.27837433 430.50326897 348.27837433 430.50326897 348.28216553 431.64411926 C348.22874361 436.77125639 348.22874361 436.77125639 346 439 C343.44369507 439.24050903 343.44369507 439.24050903 340.17333984 439.22705078 C338.34166763 439.22682419 338.34166763 439.22682419 336.47299194 439.22659302 C335.13563882 439.21637903 333.79828735 439.20594702 332.4609375 439.1953125 C331.09616299 439.1915828 329.73138581 439.18873563 328.36660767 439.18673706 C324.77279277 439.17909714 321.17913927 439.15944572 317.58538818 439.1373291 C313.91892683 439.11687832 310.25243943 439.107737 306.5859375 439.09765625 C299.39055138 439.07620003 292.1952983 439.04205992 285 439 C285.00888245 439.74280212 285.01776489 440.48560425 285.0269165 441.25091553 C285.10709744 448.25449905 285.16798186 455.25792335 285.20724869 462.26183701 C285.22811513 465.86258286 285.25641421 469.46294916 285.30175781 473.06347656 C285.34525125 476.53887913 285.36914421 480.01391688 285.37950897 483.48957062 C285.39048615 485.45945784 285.421707 487.42919847 285.45318604 489.39886475 C285.45348816 490.59980774 285.45379028 491.80075073 285.45410156 493.03808594 C285.46298401 494.09509705 285.47186646 495.15210815 285.48101807 496.2411499 C285 499 285 499 283.44354248 501.340271 C280.152829 503.57542453 277.29318422 503.56149605 273.44921875 503.51757812 C272.31681259 503.52809204 272.31681259 503.52809204 271.16152954 503.53881836 C268.66981052 503.55640198 266.17923026 503.54477511 263.6875 503.53125 C261.95401797 503.53394483 260.22053741 503.53782717 258.48706055 503.54284668 C254.85548499 503.5487422 251.2243032 503.54017726 247.59277344 503.52148438 C242.93855955 503.49869454 238.28526829 503.51181737 233.63108826 503.53577423 C230.05197197 503.55023091 226.4730743 503.54562687 222.89395142 503.53526306 C221.17794689 503.5325954 219.46192249 503.53586693 217.74594116 503.54518127 C215.34702004 503.55534508 212.94959125 503.53985007 210.55078125 503.51757812 C209.84208893 503.52567505 209.13339661 503.53377197 208.40322876 503.54211426 C205.16807791 503.48649078 203.25585894 503.17378724 200.55645752 501.340271 C198.57823399 498.36583766 198.51598387 496.59791902 198.54589844 493.03808594 C198.54635162 491.23667145 198.54635162 491.23667145 198.54681396 489.39886475 C198.56745911 488.10708313 198.58810425 486.81530151 198.609375 485.484375 C198.61683929 484.14488571 198.62253134 482.80538548 198.62652588 481.46588135 C198.64176787 477.94748564 198.68103582 474.42975485 198.7253418 470.91162109 C198.76632636 467.31877639 198.7845436 463.7258238 198.8046875 460.1328125 C198.84753255 453.08827034 198.91576554 446.04417868 199 439 C191.06252784 438.76615191 183.12654235 438.58956351 175.18645477 438.48187828 C171.49755956 438.43013762 167.81105461 438.36023054 164.12353516 438.24560547 C141.25196653 437.29837431 141.25196653 437.29837431 121.52160645 447.74169922 C119.2265928 449.63957332 116.70691973 451.08001249 114.1328125 452.56640625 C113.29105469 453.07107422 112.44929688 453.57574219 111.58203125 454.09570312 C110.77121094 454.57974609 109.96039062 455.06378906 109.125 455.5625 C108.26003906 456.08134766 107.39507813 456.60019531 106.50390625 457.13476562 C97.6862881 462.41291734 97.6862881 462.41291734 92 462 C89.40478516 460.87695313 89.40478516 460.87695313 86.7890625 459.28125 C85.80357422 458.68675049 84.81808594 458.09225098 83.80273438 457.47973633 C82.75408203 456.82642334 81.70542969 456.17311035 80.625 455.5 C78.97854492 454.49199341 78.97854492 454.49199341 77.29882812 453.46362305 C65.65330014 446.30107751 54.27667275 438.72779497 43 431 C42.22221191 430.46810059 41.44442383 429.93620117 40.64306641 429.38818359 C24.55659166 418.33928705 8.9852459 406.49988804 -6 394 C-7.85380442 392.49955233 -9.70798009 390.99956325 -11.5625 389.5 C-16.05777761 385.82437414 -20.39533107 382.00755389 -24.6875 378.09765625 C-26.66384372 376.30492554 -28.6645673 374.55204773 -30.6875 372.8125 C-40.63380907 364.1169244 -50.14442204 354.94873001 -59.5 345.625 C-60.61157471 344.52031372 -60.61157471 344.52031372 -61.74560547 343.39331055 C-66.36876753 338.75708871 -70.73283864 333.96352956 -75 329 C-76.02166455 327.84348344 -77.04505479 326.68848865 -78.0703125 325.53515625 C-85.57286006 317.03397193 -92.61731406 308.26658332 -99.38378906 299.16943359 C-100.44787785 297.7411114 -101.51741437 296.31682903 -102.59277344 294.89697266 C-112.44187023 281.88707341 -120.87554256 268.14123432 -129 254 C-129.45391113 253.21238281 -129.90782227 252.42476562 -130.37548828 251.61328125 C-151.08182167 215.2799947 -163.10641609 173.82929397 -163.29516602 132.03466797 C-163.30665253 130.27221629 -163.32705134 128.50979849 -163.35668945 126.74755859 C-163.55608916 114.83481869 -162.52975382 104.39151573 -159 93 C-158.7537085 92.15501953 -158.50741699 91.31003906 -158.25366211 90.43945312 C-147.79459853 55.76464685 -123.5301944 27.95317246 -91.90039062 10.86572266 C-64.78503716 -3.26472501 -29.70409478 -8.79467253 0 0 Z M-59 11 C-60.12664062 11.25523438 -61.25328125 11.51046875 -62.4140625 11.7734375 C-82.56370851 16.82242926 -100.11486798 27.72094013 -115 42 C-116.24910156 43.15435547 -116.24910156 43.15435547 -117.5234375 44.33203125 C-126.91964241 53.28010947 -133.42367964 63.58798842 -139.5 74.9375 C-139.93376953 75.74243896 -140.36753906 76.54737793 -140.81445312 77.37670898 C-143.00808182 81.59187392 -144.56762566 85.18983546 -145 90 C-138.5137055 84.73058448 -132.73452115 78.79282834 -126.88711357 72.84001732 C-124.38759172 70.29808027 -121.87843539 67.76574327 -119.36986637 65.23273945 C-114.71214817 60.5294344 -110.05847838 55.82228794 -105.42114258 51.09887695 C-102.18193978 47.8002942 -98.93066543 44.51404624 -95.67106819 41.2356205 C-94.43497233 39.98779248 -93.20342156 38.73544475 -91.97659111 37.47850609 C-90.26328798 35.72419109 -88.53501411 33.98603857 -86.80249023 32.25073242 C-86.30206711 31.73076187 -85.80164398 31.21079132 -85.28605652 30.67506409 C-82.03586658 27.46180345 -79.61007159 26.07815321 -75 26 C-73 28 -73 28 -72.4375 30.625 C-73.04937864 34.29627186 -73.67256415 35.09374656 -76.09159851 37.7592926 C-77.04790696 38.814575 -77.04790696 38.814575 -78.02353477 39.89117622 C-80.99331613 43.05983583 -84.02115133 46.16063851 -87.09692383 49.22631836 C-87.7677298 49.89887665 -88.43853577 50.57143494 -89.12966919 51.26437378 C-91.31963629 53.45869765 -93.51318731 55.64939641 -95.70703125 57.83984375 C-97.23937845 59.37286528 -98.77157723 60.90603518 -100.30363464 62.43934631 C-103.50019931 65.63737916 -106.69855063 68.83361131 -109.89819336 72.02856445 C-114.0052508 76.12989607 -118.10776356 80.23573988 -122.20897388 84.34291744 C-125.36491243 87.50246069 -128.52321782 90.65962932 -131.6822567 93.81607246 C-133.1969111 95.33005885 -134.71082043 96.84479101 -136.22397804 98.36027336 C-138.33026373 100.46908717 -140.43970823 102.57468848 -142.55004883 104.67944336 C-143.17706192 105.30848068 -143.80407501 105.93751801 -144.4500885 106.58561707 C-148.77145961 110.88572981 -148.77145961 110.88572981 -151 112 C-152.25857557 116.20316746 -152.11656948 120.46614605 -152.0625 124.8125 C-152.05798828 125.50537109 -152.05347656 126.19824219 -152.04882812 126.91210938 C-152.03713156 128.60811068 -152.01919924 130.30406703 -152 132 C-146.1325269 127.18600271 -140.8268795 121.89392471 -135.52331161 116.47621536 C-133.42460796 114.33498076 -131.31615988 112.2034484 -129.20833015 110.07120323 C-125.29753791 106.11486297 -121.39092956 102.15458607 -117.50048828 98.17822266 C-114.77997361 95.39837623 -112.04745207 92.63084877 -109.30655289 89.87110519 C-108.26779492 88.82060927 -107.23358628 87.76559432 -106.20409775 86.70601273 C-104.76833071 85.22929612 -103.31776763 83.76879528 -101.86279297 82.31103516 C-101.04229462 81.47641754 -100.22179626 80.64179993 -99.37643433 79.78189087 C-97 78 -97 78 -94.32107544 77.6055603 C-92 78 -92 78 -90 80 C-89.52304077 82.751297 -89.52304077 82.751297 -90 86 C-91.82147593 88.27520421 -93.49501824 90.04615886 -95.63134766 91.97924805 C-96.22952805 92.54457245 -96.82770844 93.10989685 -97.4440155 93.69235229 C-98.74275205 94.91810289 -100.04771191 96.13728549 -101.35808182 97.35059166 C-103.43543158 99.28158228 -105.48646662 101.23702951 -107.53134155 103.2023468 C-113.34538573 108.7877683 -119.17654688 114.35274 -125.08886719 119.83422852 C-128.70750022 123.19271858 -132.27142444 126.60177783 -135.80665207 130.0478611 C-137.1568801 131.34457102 -138.52610735 132.62181694 -139.91450882 133.8775692 C-147.56804413 140.49264588 -147.56804413 140.49264588 -151.35076141 149.50290298 C-151.37159719 155.17191649 -150.35982783 160.51486606 -149 166 C-146.72438864 166.22868996 -146.72438864 166.22868996 -144.73828125 163.8671875 C-143.83464844 162.92101562 -142.93101562 161.97484375 -142 161 C-141.05818884 160.04210353 -140.114137 159.08640547 -139.16796875 158.1328125 C-138.68360352 157.64329102 -138.19923828 157.15376953 -137.70019531 156.64941406 C-133.22069479 152.13521114 -128.70499166 147.76540612 -123.859375 143.640625 C-121.1146777 141.21883326 -118.58643289 138.59568627 -116.01953125 135.98828125 C-113.37101522 133.38074806 -110.5872252 130.95582517 -107.76171875 128.54296875 C-105.97623234 127.04379546 -105.97623234 127.04379546 -104.5 125.3125 C-101.9812441 123.10858859 -99.18571197 123.81967668 -96 124 C-95.32673671 131.09221667 -95.32673671 131.09221667 -98.34375 135.16015625 C-99.37543998 136.14932286 -100.42876694 137.11629995 -101.5 138.0625 C-102.04954346 138.57852783 -102.59908691 139.09455566 -103.1652832 139.6262207 C-104.75627762 141.1090825 -106.37042665 142.55976556 -108 144 C-108.74636719 144.66257813 -109.49273438 145.32515625 -110.26171875 146.0078125 C-111.52594565 147.11048505 -112.79661901 148.20581866 -114.07421875 149.29296875 C-117.11524413 151.98856326 -119.92067377 154.91271052 -122.7734375 157.8046875 C-125.44324711 160.4370261 -128.24553873 162.87292101 -131.09375 165.30859375 C-133.02948963 167.02616601 -134.82533503 168.82863552 -136.625 170.6875 C-139.52392469 173.64640244 -142.46753691 175.84605909 -146 178 C-144.47536437 185.49612516 -142.31993846 192.71359134 -140 200 C-135.11036319 195.94888042 -130.59153308 191.67200701 -126.18359375 187.10546875 C-124.91270848 185.8073559 -123.64120595 184.50984712 -122.36914062 183.21289062 C-120.39268168 181.19305261 -118.42038028 179.16975521 -116.45825195 177.13598633 C-114.54479886 175.15593699 -112.61580902 173.19219045 -110.68359375 171.23046875 C-110.10218124 170.62011276 -109.52076874 170.00975677 -108.92173767 169.38090515 C-106.17766407 166.6190874 -104.49514779 165.15254238 -100.70727539 163.9855957 C-98 164 -98 164 -96 166 C-95.4375 168.625 -95.4375 168.625 -96 172 C-97.3160553 173.80603027 -97.3160553 173.80603027 -99.05493164 175.72460938 C-99.69189972 176.42755127 -100.3288678 177.13049316 -100.98513794 177.85473633 C-104.15453646 181.22925791 -107.39743343 184.52063954 -110.68359375 187.78125 C-111.38396255 188.48020386 -112.08433136 189.17915771 -112.80592346 189.89929199 C-115.01408458 192.10191539 -117.22572037 194.30101081 -119.4375 196.5 C-120.94749814 198.00497508 -122.4572659 199.51018135 -123.96679688 201.015625 C-127.64187641 204.67975829 -131.32007356 208.3407348 -135 212 C-134.53055501 213.43210612 -134.05904259 214.86353463 -133.58666992 216.29467773 C-133.32432053 217.09187729 -133.06197113 217.88907684 -132.79167175 218.71043396 C-131.79941276 221.58011131 -130.59990914 224.31370752 -129.3125 227.0625 C-128.87550781 228.00222656 -128.43851563 228.94195312 -127.98828125 229.91015625 C-127.66214844 230.59980469 -127.33601562 231.28945313 -127 232 C-123.01295714 230.40247219 -120.3698311 227.60944346 -117.4296875 224.58984375 C-116.90738556 224.06234024 -116.38508362 223.53483673 -115.84695435 222.99134827 C-114.18479666 221.3114287 -112.52950195 219.62495728 -110.875 217.9375 C-109.21249027 216.24736984 -107.54854046 214.5587228 -105.88162231 212.87294006 C-104.8460278 211.82509029 -103.81311817 210.77457886 -102.78317261 209.72117615 C-98.17432179 205.0479315 -98.17432179 205.0479315 -93.9375 204.875 C-91 205 -91 205 -90 206 C-89.5 208.5625 -89.5 208.5625 -90 212 C-94.93441956 218.99553113 -101.77057039 224.92058873 -107.8125 230.9375 C-108.77555913 231.90412902 -109.73845081 232.8709249 -110.70117188 233.83789062 C-112.06532227 235.20010742 -112.06532227 235.20010742 -113.45703125 236.58984375 C-114.28178955 237.41347412 -115.10654785 238.23710449 -115.95629883 239.08569336 C-118 241 -118 241 -120 242 C-119.42334609 246.7871428 -117.35917004 250.25128824 -114.9375 254.3125 C-114.37192383 255.28026367 -114.37192383 255.28026367 -113.79492188 256.26757812 C-112.86962507 257.84878152 -111.93567319 259.4249146 -111 261 C-107.82569084 261.33310171 -107.82569084 261.33310171 -105.55151367 258.81274414 C-104.58336991 257.81022516 -103.62266032 256.80049395 -102.66796875 255.78515625 C-101.61159637 254.69570338 -100.55494693 253.6065191 -99.49804688 252.51757812 C-97.84123916 250.79256479 -96.18870439 249.06376835 -94.54174805 247.3293457 C-92.94895662 245.65780953 -91.34084971 244.00222769 -89.73046875 242.34765625 C-89.24587692 241.82784683 -88.7612851 241.30803741 -88.26200867 240.7724762 C-85.01764564 237.45871837 -82.65631867 236.16087484 -78 236 C-76.0625 237.125 -76.0625 237.125 -75 239 C-75.39781995 242.83564412 -76.38260557 244.91249133 -78.98046875 247.72265625 C-79.61130371 248.40859863 -80.24213867 249.09454102 -80.89208984 249.80126953 C-84.6546066 253.72589611 -88.45864488 257.60249014 -92.3125 261.4375 C-93.12267578 262.25154297 -93.93285156 263.06558594 -94.76757812 263.90429688 C-95.54166016 264.67708984 -96.31574219 265.44988281 -97.11328125 266.24609375 C-97.81235596 266.94404053 -98.51143066 267.6419873 -99.23168945 268.36108398 C-101 270 -101 270 -103 271 C-102.37770996 274.40409469 -101.09965425 276.55386801 -99.05859375 279.328125 C-98.47529297 280.12734375 -97.89199219 280.9265625 -97.29101562 281.75 C-96.37352539 282.9875 -96.37352539 282.9875 -95.4375 284.25 C-94.51420898 285.51070313 -94.51420898 285.51070313 -93.57226562 286.796875 C-92.05368836 288.86873236 -90.52947228 290.93617964 -89 293 C-84.87708361 289.61510229 -81.06619558 286.10767102 -77.37109375 282.2578125 C-76.56349609 281.41992188 -75.75589844 280.58203125 -74.92382812 279.71875 C-73.25267148 277.97539099 -71.59132016 276.22258459 -69.93945312 274.4609375 C-69.13314453 273.63078125 -68.32683594 272.800625 -67.49609375 271.9453125 C-66.77607178 271.18750488 -66.0560498 270.42969727 -65.31420898 269.64892578 C-62.34070706 267.530239 -60.57595989 267.53278299 -57 268 C-55 270 -55 270 -54.51953125 272.23901367 C-55.22921639 276.31717893 -57.80526485 278.42433176 -60.6875 281.17578125 C-61.26459717 281.74580368 -61.84169434 282.31582611 -62.4362793 282.90312195 C-64.27944012 284.71832825 -66.13922688 286.51536974 -68 288.3125 C-69.25374052 289.54115923 -70.50635913 290.77096439 -71.7578125 292.00195312 C-74.82568908 295.01474624 -77.90859201 298.01136488 -81 301 C-79.28966159 304.59515236 -77.18287461 307.37399901 -74.625 310.4375 C-71.71710605 313.93378052 -68.82984317 317.44008313 -66 321 C-62.14605021 319.43144132 -59.84582201 316.99030889 -57.0078125 313.9921875 C-56.04616763 312.99551959 -55.08390905 311.99944353 -54.12109375 311.00390625 C-52.61790759 309.43876344 -51.11988158 307.86956346 -49.63232422 306.28955078 C-48.18769468 304.76008322 -46.72466639 303.25031168 -45.2578125 301.7421875 C-44.3930127 300.8332373 -43.52821289 299.92428711 -42.63720703 298.98779297 C-40 297 -40 297 -36.79638672 296.57861328 C-34 297 -34 297 -32 299 C-31.53320312 301.25268555 -31.53320312 301.25268555 -32 304 C-33.76264791 306.198622 -35.44544231 308.02920655 -37.46875 309.95703125 C-38.02365112 310.50485764 -38.57855225 311.05268402 -39.15026855 311.61711121 C-40.92211014 313.36100503 -42.71054789 315.08669954 -44.5 316.8125 C-45.70556344 317.99298124 -46.91000493 319.17460944 -48.11328125 320.35742188 C-51.06267591 323.25174216 -54.02707505 326.12986235 -57 329 C-53.52457683 333.77102616 -50.00241975 338.32510198 -45.875 342.5625 C-45.04742188 343.43003906 -44.21984375 344.29757812 -43.3671875 345.19140625 C-41.24792788 347.21780288 -41.24792788 347.21780288 -39.13232422 346.89257812 C-36.203177 345.66645467 -34.66217649 343.86060097 -32.515625 341.52734375 C-31.66226563 340.62822266 -30.80890625 339.72910156 -29.9296875 338.80273438 C-28.14854468 336.89826169 -26.37759784 334.98420001 -24.6171875 333.06054688 C-18.1465314 326.29356193 -18.1465314 326.29356193 -14.57617188 325.37939453 C-12.359375 325.37890625 -12.359375 325.37890625 -9 326 C-8.49075055 328.90999688 -8.4295192 331.08593418 -10.03125 333.65234375 C-11.93297485 335.86940563 -13.93835544 337.92889836 -16 340 C-16.59522461 340.60215332 -17.19044922 341.20430664 -17.80371094 341.82470703 C-22.17518457 346.24418367 -26.5768399 350.63228935 -31 355 C-27.37315816 359.37282177 -23.65946781 363.43041035 -19.4375 367.25 C-18.52871094 368.08015625 -17.61992188 368.9103125 -16.68359375 369.765625 C-14.21541648 371.82064304 -11.76555046 373.3869311 -9 375 C-8.42556152 374.39937744 -7.85112305 373.79875488 -7.25927734 373.17993164 C-5.11128447 370.94646051 -2.95204224 368.72466533 -0.78466797 366.51000977 C0.60691323 365.0810723 1.98520547 363.63923222 3.36328125 362.19726562 C4.68779297 360.84858398 4.68779297 360.84858398 6.0390625 359.47265625 C7.24876709 358.22367554 7.24876709 358.22367554 8.48291016 356.94946289 C11.86752318 354.32811129 14.80215456 354 19 354 C19.55996611 357.18296528 19.76036769 358.91350746 19 362 C16.24986348 365.76937572 12.91563696 368.83701329 9.5 372 C8.59378906 372.87011719 7.68757812 373.74023438 6.75390625 374.63671875 C4.51956526 376.77698222 2.26877193 378.89636825 0 381 C1.82425817 385.04386145 4.46327756 387.3339402 7.875 390.0625 C8.40480469 390.49626953 8.93460938 390.93003906 9.48046875 391.37695312 C12.27135886 393.65190946 15.10120398 395.86441356 18 398 C21.56238829 396.49808541 23.72715844 394.44284068 26.37109375 391.6484375 C27.19287109 390.79765625 28.01464844 389.946875 28.86132812 389.0703125 C30.5808228 387.27129608 32.29436889 385.46657541 34.00195312 383.65625 C35.23655273 382.38394531 35.23655273 382.38394531 36.49609375 381.0859375 C37.24044678 380.3026709 37.9847998 379.5194043 38.75170898 378.71240234 C41 377 41 377 43.65649414 376.61962891 C46 377 46 377 48 379 C48.49949952 382.67208213 48.44455196 384.38183383 46.25585938 387.42529297 C45.06186523 388.57215576 45.06186523 388.57215576 43.84375 389.7421875 C42.98652344 390.58007812 42.12929688 391.41796875 41.24609375 392.28125 C40.33988281 393.1371875 39.43367187 393.993125 38.5 394.875 C37.14068359 396.19371094 37.14068359 396.19371094 35.75390625 397.5390625 C33.51547913 399.70680245 31.26427911 401.85933075 29 404 C30.38519527 407.28228176 31.83213347 408.91048479 34.73828125 410.9453125 C35.47626953 411.46480469 36.21425781 411.98429687 36.97460938 412.51953125 C37.74611328 413.04933594 38.51761719 413.57914062 39.3125 414.125 C40.07240234 414.66253906 40.83230469 415.20007813 41.61523438 415.75390625 C45.28649874 418.31198968 48.70175298 420.61014767 53 422 C53.41773682 421.55084229 53.83547363 421.10168457 54.26586914 420.63891602 C56.18191484 418.59754872 58.12159602 416.58023524 60.0625 414.5625 C60.71927734 413.85544922 61.37605469 413.14839844 62.05273438 412.41992188 C67.66380145 406.64301045 67.66380145 406.64301045 71.87109375 405.90234375 C75 406 75 406 77 408 C77.05072513 412.60471503 76.14865595 415.23577585 73.05859375 418.52734375 C71.86660122 419.67982271 70.65902674 420.81637272 69.4375 421.9375 C68.82197266 422.52595703 68.20644531 423.11441406 67.57226562 423.72070312 C66.06148106 425.16121864 64.53249445 426.58260249 63 428 C64.23792984 431.71378953 65.36035828 432.14426109 68.62890625 434.1796875 C69.58216797 434.77910156 70.53542969 435.37851562 71.51757812 435.99609375 C72.52240234 436.61613281 73.52722656 437.23617188 74.5625 437.875 C75.54025391 438.48730469 76.51800781 439.09960938 77.52539062 439.73046875 C79.44890485 440.93379245 81.3767342 442.13024943 83.30908203 443.31933594 C85.01078704 444.3821682 86.69674209 445.47103284 88.35888672 446.59472656 C89.05385254 447.06104492 89.74881836 447.52736328 90.46484375 448.0078125 C91.35417603 448.62487061 91.35417603 448.62487061 92.26147461 449.25439453 C94.62532958 450.26818657 95.61466225 449.91531052 98 449 C99.66011746 448.11552118 101.28942163 447.17217936 102.89453125 446.19140625 C104.33022461 445.31645508 104.33022461 445.31645508 105.79492188 444.42382812 C106.79072266 443.80958984 107.78652344 443.19535156 108.8125 442.5625 C109.76576172 441.98306641 110.71902344 441.40363281 111.70117188 440.80664062 C113.71715692 439.57189995 115.70803271 438.29547636 117.67553711 436.98486328 C120.26928737 435.43627038 122.2741379 434.49917291 125.06079102 433.52685547 C129.82233827 431.60359694 133.4136661 429.57256668 136 425 C138.50474322 414.4595077 137.69548234 403.19721334 137.37695312 392.44415283 C137.24858212 387.57614434 137.22119954 382.70670603 137.1820631 377.83731079 C137.1502586 374.05375458 137.1024592 370.27273944 137.00569153 366.49023438 C136.99119461 365.79845596 136.97669769 365.10667755 136.96176147 364.39393616 C136.92184799 362.52671491 136.87249261 360.65970223 136.82246399 358.79272461 C137 356 137 356 139 354 C141.51834106 353.7215271 141.51834106 353.7215271 144.73486328 353.68115234 C146.53650436 353.65134781 146.53650436 353.65134781 148.37454224 353.62094116 C149.67664642 353.60938995 150.97875061 353.59783875 152.3203125 353.5859375 C153.66268107 353.5672323 155.00503781 353.54765938 156.34738159 353.5272522 C159.88186678 353.47585609 163.41639012 353.43627074 166.9510498 353.39910889 C170.55730688 353.35911586 174.16340422 353.30800217 177.76953125 353.2578125 C184.84623729 353.1609649 191.92304339 353.07658858 199 353 C199.01213028 351.87913498 199.01213028 351.87913498 199.02450562 350.73562622 C199.10236909 343.70178056 199.18963436 336.6681296 199.28752708 329.63453865 C199.3375243 326.01827982 199.38385371 322.40205068 199.421875 318.78564453 C199.45868502 315.29716911 199.50503264 311.80894014 199.55806351 308.3206749 C199.58568111 306.33871227 199.60335779 304.35661928 199.62094116 302.37454224 C199.6507457 300.57290115 199.6507457 300.57290115 199.68115234 298.73486328 C199.69447601 297.67341095 199.70779968 296.61195862 199.7215271 295.51834106 C200 293 200 293 202 291 C204.50489574 290.86118446 206.89535082 290.84520698 209.39624023 290.91918945 C210.97805755 290.94831822 212.55988058 290.9771375 214.14170837 291.00569153 C214.98294691 291.02421488 215.82418545 291.04273823 216.69091606 291.06182289 C221.1522724 291.14952432 225.61412424 291.17027324 230.07617188 291.20117188 C235.75238071 291.24277286 241.42572498 291.30425465 247.1003418 291.44897461 C251.68780887 291.56420077 256.27082344 291.60497026 260.85966682 291.59746361 C262.60095945 291.60791076 264.34231884 291.64493209 266.08242607 291.71001625 C275.49822259 292.24392847 275.49822259 292.24392847 283.80624962 288.52821159 C287.10538908 284.96129057 289.63581248 281.00080512 292.00172329 276.7720499 C293.2967151 274.47329838 294.77448093 272.31920997 296.27734375 270.15234375 C297.17189369 268.75236904 298.05869413 267.347411 298.9375 265.9375 C299.42710205 265.1549585 299.9167041 264.37241699 300.42114258 263.56616211 C325.34799823 223.2104766 342.58067213 179.09519769 342.5 131.25 C342.49881165 130.47631073 342.49762329 129.70262146 342.49639893 128.90548706 C342.41853264 115.7170162 341.18125128 103.16119116 336.875 90.625 C336.56715576 89.72434814 336.25931152 88.82369629 335.94213867 87.89575195 C325.45473792 58.21886396 303.20042377 33.91024791 275.11328125 19.8828125 C246.02359852 6.13392196 212.92213662 3.45907247 182.35107422 14.12060547 C150.29347728 26.11141172 125.41868119 48.78487447 111.00610352 79.84912109 C104.10547291 95.43527369 101.17185313 111.21436814 100.24609375 128.19921875 C100 131 100 131 99 133 C95.625 133.1875 95.625 133.1875 92 133 C89.486734 129.23010101 89.67423262 126.12165246 89.5625 121.75 C88.15494205 89.55934252 73.34185817 60.84326945 50.15625 38.8125 C25.28741324 16.12514014 -6.94122569 6.59163883 -40.10791016 7.82714844 C-46.59160075 8.21465924 -52.70474259 9.40186622 -59 11 Z " fill="#10150F" transform="translate(900,93)"/>
<path d="M0 0 C22.31625 -0.061875 44.6325 -0.12375 67.625 -0.1875 C78.13142334 -0.22846802 78.13142334 -0.22846802 88.85009766 -0.27026367 C97.51049805 -0.28381348 97.51049805 -0.28381348 101.58554077 -0.28633118 C104.38631561 -0.28908703 107.18691379 -0.30016901 109.98764038 -0.31672668 C139.80395538 -0.48499258 167.86246434 1.78752367 195 15 C196.45792969 15.69029297 196.45792969 15.69029297 197.9453125 16.39453125 C221.80213805 28.46205088 238.23538683 50.19661145 246.734375 75.15673828 C259.7931268 115.84744615 259.53132813 166.2285759 240.18310547 204.91040039 C226.78549474 230.50647327 204.99040804 247.74595753 177.8203125 256.7890625 C122.08526687 274.1430351 51.8648061 265 0 265 C0 177.55 0 90.1 0 0 Z M86 64 C86 109.21 86 154.42 86 201 C121.37650237 202.70562034 121.37650237 202.70562034 152.21875 187.96484375 C166.22606427 173.14740496 167.18728417 154.07779396 167.18530273 134.70922852 C167.18747913 132.33526391 167.2056577 129.96177281 167.22460938 127.58789062 C167.29378816 109.3211194 165.56611816 91.3650023 153 77 C150.49789429 74.67374509 147.90629806 72.78892521 145 71 C144.40832031 70.62230469 143.81664062 70.24460937 143.20703125 69.85546875 C126.56308276 60.3801292 103.1904572 64 86 64 Z " fill="#7FDD66" transform="translate(19,748)"/>
<path d="M0 0 C25.74 0 51.48 0 78 0 C78 31.35 78 62.7 78 95 C82.29 91.7 86.58 88.4 91 85 C93.7075428 83.37645532 96.1779072 81.94210215 99 80.625 C99.67023193 80.30321777 100.34046387 79.98143555 101.03100586 79.64990234 C123.07627283 69.34485759 148.89414126 68.05309817 171.97265625 75.8125 C188.08546055 82.13287743 198.31250887 92.87517438 205.5703125 108.34765625 C213.1101738 127.6487982 212.41967443 148.23595435 212.30418181 168.60041595 C212.28517195 172.52943677 212.28364575 176.45846775 212.28010559 180.38752747 C212.27085537 187.79598018 212.24633892 195.2042969 212.21605712 202.61269027 C212.1759534 212.6460903 212.16000135 222.67952865 212.14255047 232.71298885 C212.11451094 248.47542736 212.05469546 264.23757919 212 280 C186.26 280 160.52 280 134 280 C133.96132813 265.98917969 133.96132813 265.98917969 133.921875 251.6953125 C133.89670266 245.77081248 133.87052906 239.84634479 133.83984375 233.921875 C133.79134593 224.52246337 133.74688574 215.12315923 133.72900391 205.72363281 C133.71595998 198.8770416 133.68892585 192.03066973 133.64538693 185.18420208 C133.62283328 181.56205904 133.60708562 177.94018593 133.60811615 174.31796646 C133.60900617 170.26521809 133.57864966 166.21326082 133.54589844 162.16064453 C133.5509288 160.97165054 133.55595917 159.78265656 133.56114197 158.55763245 C133.45915015 150.37647113 132.2633149 143.12208198 127.0703125 136.5625 C126.42835938 136.046875 125.78640625 135.53125 125.125 135 C124.48820313 134.46375 123.85140625 133.9275 123.1953125 133.375 C116.60895328 129.24973586 109.52191508 129.29205505 102 130 C94.35920224 131.86257674 87.90691077 135.65850989 83.49609375 142.24609375 C80.34971797 147.70519019 78.88554925 151.97487939 78.84178162 158.3024292 C78.8319928 159.37652542 78.82220398 160.45062164 78.81211853 161.55726624 C78.80636307 162.73042892 78.8006076 163.90359161 78.79467773 165.11230469 C78.78477814 166.35159225 78.77487854 167.59087982 78.76467896 168.86772156 C78.73851131 172.26199938 78.71664099 175.65625393 78.69667697 179.05057049 C78.67478974 182.59935202 78.64741445 186.14809111 78.62062073 189.69683838 C78.57073083 196.41509092 78.52577829 203.13336708 78.48259836 209.85166574 C78.42395585 218.93138293 78.35768889 228.01104427 78.29184818 237.09071159 C78.18833143 251.39377008 78.09500379 265.69687657 78 280 C52.26 280 26.52 280 0 280 C0 187.6 0 95.2 0 0 Z " fill="#80DD66" transform="translate(697,733)"/>
<path d="M0 0 C25.41 0 50.82 0 77 0 C77.33 31.35 77.66 62.7 78 95 C81.63 92.03 85.26 89.06 89 86 C110.7393417 71.93995202 136.72140321 68.05118466 162 73 C177.21390849 76.58759157 190.12204266 84.16190912 199.16015625 97.08984375 C206.80519919 109.56483905 211.13273114 123.77544629 211.12025452 138.46043396 C211.12231651 140.34281013 211.12231651 140.34281013 211.12442017 142.26321411 C211.12088198 143.6356814 211.11724718 145.00814843 211.11352539 146.38061523 C211.11324303 147.83975726 211.11340221 149.29889943 211.1139679 150.75804138 C211.11425395 154.70379457 211.10838827 158.64951715 211.10139394 162.59526324 C211.09512842 166.72456375 211.09455407 170.85386502 211.09336853 174.98316956 C211.09026463 182.79570556 211.08206395 190.60822752 211.07201904 198.42075735 C211.05873484 208.98270051 211.05335039 219.54464754 211.04751682 230.10659695 C211.03812342 246.73774181 211.01819821 263.36885704 211 280 C185.59 280 160.18 280 134 280 C133.96132812 266.22314453 133.96132812 266.22314453 133.921875 252.16796875 C133.89669991 246.33917156 133.87052389 240.51040714 133.83984375 234.68164062 C133.79136373 225.43595631 133.74689659 216.19038096 133.72900391 206.94458008 C133.71595153 200.20967892 133.68889612 193.47500039 133.64538693 186.74022466 C133.6228521 183.17785261 133.60708447 179.61575432 133.60811615 176.05330467 C133.6090076 172.06541688 133.57862074 168.07833 133.54589844 164.09057617 C133.5509288 162.92387894 133.55595917 161.7571817 133.56114197 160.55513 C133.45250891 151.96191339 131.96102107 143.67768136 126.8125 136.5625 C120.27317864 130.60445165 113.88217228 129.35597478 105.140625 129.69140625 C96.07203368 130.5824743 90.01150546 134.0914288 84 141 C78.15652479 150.0295605 77.84815298 158.4863874 77.79467773 168.97216797 C77.78477814 170.17273331 77.77487854 171.37329865 77.76467896 172.61024475 C77.73857256 175.88869812 77.71667717 179.16714672 77.69667697 182.44564199 C77.6747411 185.87696486 77.64738976 189.30824452 77.62062073 192.73953247 C77.57079626 199.23105577 77.52581962 205.72260318 77.48259836 212.21417344 C77.42828293 220.33291878 77.36747214 228.45161381 77.30664062 236.5703125 C77.19820001 251.04683628 77.099561 265.52340638 77 280 C51.59 280 26.18 280 0 280 C0 187.6 0 95.2 0 0 Z " fill="#7FDD66" transform="translate(1765,733)"/>
<path d="M0 0 C9.46100554 9.28748082 15.04973123 22.22634057 15.27680969 35.50814819 C15.28519933 37.13912202 15.28838566 38.77012797 15.28735352 40.40112305 C15.29082794 41.29623093 15.29430237 42.19133881 15.29788208 43.11357117 C15.3052116 45.0500057 15.31057185 46.98644847 15.31417274 48.92289352 C15.3213684 51.99209061 15.33705734 55.06113061 15.35551453 58.13027954 C15.40784411 66.8541654 15.45595967 75.57796242 15.47143555 84.30200195 C15.48153394 89.64535447 15.51090103 94.98830682 15.55275536 100.33150101 C15.56503868 102.36235143 15.57019151 104.39325841 15.56795692 106.42414474 C15.5655958 109.26976812 15.58783047 112.11424832 15.61547852 114.9597168 C15.60887711 115.791147 15.6022757 116.62257721 15.59547424 117.47920227 C15.68093529 122.85900283 16.4438114 128.16078837 20.14550781 132.30981445 C27.47072277 135.03202155 27.47072277 135.03202155 41.14550781 135.30981445 C41.14550781 150.15981445 41.14550781 165.00981445 41.14550781 180.30981445 C28.2336694 185.47454982 17.03528787 187.83038646 3.18652344 187.70092773 C1.14613057 187.68481937 -0.89228292 187.70089759 -2.93261719 187.7199707 C-19.76364915 187.74729483 -37.36346006 184.38201513 -49.85449219 172.30981445 C-52.02638292 169.74671358 -53.99983844 167.10997796 -55.85449219 164.30981445 C-56.46292969 164.72231445 -57.07136719 165.13481445 -57.69824219 165.55981445 C-68.52936015 172.69560981 -79.8079014 178.51189338 -92.10449219 182.68481445 C-93.14778687 183.04265015 -93.14778687 183.04265015 -94.2121582 183.40771484 C-105.25592403 186.9680201 -116.3134878 187.65901561 -127.83447266 187.62548828 C-130.08773716 187.62233788 -132.33967086 187.64584614 -134.59277344 187.67114258 C-154.98093901 187.76028683 -174.18390886 183.79679749 -189.65917969 169.66137695 C-200.91171311 157.70920414 -202.90029368 141.94775135 -202.85449219 126.30981445 C-202.26938728 109.91206416 -197.5142895 94.81601075 -185.64355469 83.1340332 C-152.85157002 55.08108951 -102.32857951 58.06216639 -61.85449219 57.30981445 C-62.13059205 54.57533496 -62.41871035 51.84302828 -62.71386719 49.1105957 C-62.82867432 47.95485046 -62.82867432 47.95485046 -62.94580078 46.77575684 C-63.76457916 39.36104296 -65.85914806 34.94856999 -71.47949219 29.99731445 C-84.05403432 23.71004339 -96.64701255 24.13903141 -109.85449219 28.30981445 C-114.21343181 30.25265611 -116.87592995 32.93615057 -118.85449219 37.30981445 C-119.18449219 39.28981445 -119.51449219 41.26981445 -119.85449219 43.30981445 C-145.26449219 43.30981445 -170.67449219 43.30981445 -196.85449219 43.30981445 C-196.85449219 26.34485095 -194.32223583 13.50005873 -182.35449219 1.12231445 C-142.65637372 -37.94527878 -40.17925401 -37.52650719 0 0 Z M-118.85449219 107.30981445 C-122.82887428 111.41450416 -124.98444952 114.83025593 -125.10449219 120.62231445 C-125.0102341 126.43803814 -123.31864238 129.7742423 -119.29199219 133.99731445 C-111.96594482 139.57735053 -102.7198008 140.11984265 -93.85449219 139.30981445 C-82.64275159 137.60244279 -73.91391023 133.17201684 -66.32714844 124.7277832 C-62.15646472 117.87989667 -61.4288143 111.11939906 -61.66699219 103.24731445 C-61.68052734 102.38170898 -61.6940625 101.51610352 -61.70800781 100.62426758 C-61.74289889 98.51917271 -61.79668554 96.41440471 -61.85449219 94.30981445 C-80.79067837 94.30981445 -103.40015169 94.87095503 -118.85449219 107.30981445 Z " fill="#7FDD66" transform="translate(1400.8544921875,829.690185546875)"/>
<path d="M0 0 C10.71083269 10.18545957 17.49937046 23.17049287 17.9390564 38.18409729 C17.95021769 39.80832193 17.95099335 41.43264208 17.94287109 43.05688477 C17.94830177 44.4002037 17.94830177 44.4002037 17.95384216 45.7706604 C17.96069112 47.69885305 17.96325013 49.6270649 17.96189499 51.55526924 C17.96092295 54.61216795 17.97395042 57.66872159 17.99087524 60.72557068 C18.03695296 69.41101473 18.06175891 78.09642015 18.06835938 86.78198242 C18.07338222 92.10931866 18.09766393 97.43628972 18.13368607 102.76350212 C18.14345858 104.78598778 18.14582998 106.8085238 18.14051437 108.83102608 C18.13341947 111.66191669 18.15077353 114.49172167 18.17333984 117.32250977 C18.16516739 118.14922684 18.15699493 118.97594391 18.14857483 119.82771301 C18.22443104 125.19912303 18.99398114 130.48245597 22.6875 134.625 C30.01271496 137.34720709 30.01271496 137.34720709 43.6875 137.625 C43.6875 152.475 43.6875 167.325 43.6875 182.625 C30.77566159 187.78973536 19.57728005 190.14557201 5.72851562 190.01611328 C3.68812276 190.00000492 1.64970927 190.01608313 -0.390625 190.03515625 C-17.25571135 190.06253567 -34.77440092 186.67692789 -47.3125 174.625 C-52.3125 168.81514085 -52.3125 168.81514085 -52.3125 165.625 C-53.30507813 166.26566406 -54.29765625 166.90632812 -55.3203125 167.56640625 C-77.61073328 181.82132936 -98.56203655 190.01846236 -125.29248047 189.94067383 C-127.54574497 189.93752343 -129.79767867 189.96103168 -132.05078125 189.98632812 C-152.43894683 190.07547237 -171.64191668 186.11198304 -187.1171875 171.9765625 C-198.36972093 160.02438969 -200.35830149 144.2629369 -200.3125 128.625 C-199.72739509 112.22724971 -194.97229731 97.1311963 -183.1015625 85.44921875 C-150.30957783 57.39627506 -99.78658732 60.37735193 -59.3125 59.625 C-59.58859986 56.89052051 -59.87671816 54.15821383 -60.171875 51.42578125 C-60.28668213 50.27003601 -60.28668213 50.27003601 -60.40380859 49.09094238 C-61.22258697 41.6762285 -63.31715587 37.26375554 -68.9375 32.3125 C-81.51204213 26.02522893 -94.10502037 26.45421696 -107.3125 30.625 C-111.67143962 32.56784166 -114.33393777 35.25133612 -116.3125 39.625 C-116.6425 41.605 -116.9725 43.585 -117.3125 45.625 C-142.7225 45.625 -168.1325 45.625 -194.3125 45.625 C-194.3125 28.17719497 -191.72672263 16.72995425 -179.73828125 4.03515625 C-167.98854307 -7.63889924 -153.32053609 -14.43071226 -137.3125 -18.375 C-136.19875 -18.64957031 -135.085 -18.92414062 -133.9375 -19.20703125 C-93.69250444 -27.86141059 -33.1339847 -28.70299121 0 0 Z M-116.3125 109.625 C-120.28688209 113.7296897 -122.44245734 117.14544147 -122.5625 122.9375 C-122.46824192 128.75322369 -120.77665019 132.08942785 -116.75 136.3125 C-109.42395263 141.89253608 -100.17780861 142.4350282 -91.3125 141.625 C-80.1007594 139.91762834 -71.37191804 135.48720239 -63.78515625 127.04296875 C-59.61447253 120.19508222 -58.88682211 113.43458461 -59.125 105.5625 C-59.13853516 104.69689453 -59.15207031 103.83128906 -59.16601562 102.93945312 C-59.2009067 100.83435826 -59.25469335 98.72959026 -59.3125 96.625 C-78.24868618 96.625 -100.8581595 97.18614057 -116.3125 109.625 Z " fill="#7FDD66" transform="translate(629.3125,827.375)"/>
<path d="M0 0 C0.59296875 0.44730469 1.1859375 0.89460937 1.796875 1.35546875 C19.68801802 15.34831226 27.03236629 39.04934716 30.3125 60.5625 C31.24493567 72.00602867 31 83.51854605 31 95 C-19.16 95 -69.32 95 -121 95 C-119.37252212 112.46982897 -119.37252212 112.46982897 -111 127 C-111 127.66 -111 128.32 -111 129 C-110.15115234 129.41765625 -110.15115234 129.41765625 -109.28515625 129.84375 C-107.77792391 130.6063838 -106.28483812 131.39773709 -104.80859375 132.21875 C-92.05687253 139.10930117 -77.91645195 139.53870254 -64 136 C-56.00639201 133.05381625 -51.74238047 129.46906448 -47.3125 122.25 C-45.47810032 117.99681753 -45.47810032 117.99681753 -44 109 C-19.25 109 5.5 109 31 109 C31 130.00600192 25.21129694 146.24945476 10.875 161.625 C-11.97395889 183.53334994 -45.37574278 188.60435439 -75.78173828 188.39111328 C-78.49953342 188.37500277 -81.2158424 188.39109631 -83.93359375 188.41015625 C-99.54065453 188.42974457 -115.2997318 187.06902527 -130.25 182.3125 C-131.065896 182.05903809 -131.88179199 181.80557617 -132.72241211 181.54443359 C-145.37630752 177.43773766 -156.63024255 171.35248952 -167 163 C-167.97839844 162.22914063 -168.95679688 161.45828125 -169.96484375 160.6640625 C-188.70915635 144.91130872 -196.28973097 119.72892105 -198.625 96.25 C-200.29251637 72.90477082 -198.16531981 49.34717159 -188 28 C-187.58234375 27.10023438 -187.1646875 26.20046875 -186.734375 25.2734375 C-175.56549989 2.99987621 -155.06918806 -10.38632594 -132.125 -18.3125 C-90.80484873 -31.82443903 -34.42619502 -28.57899777 0 0 Z M-109.875 34.5 C-110.57625 35.325 -111.2775 36.15 -112 37 C-112.680625 37.721875 -113.36125 38.44375 -114.0625 39.1875 C-118.07302619 45.00923157 -119.84486231 51.06917388 -121 58 C-96.58 58 -72.16 58 -47 58 C-49.35430057 42.62910615 -49.35430057 42.62910615 -58.9375 31.5625 C-74.04829591 21.37350619 -96.00532203 22.43941046 -109.875 34.5 Z " fill="#7FDD66" transform="translate(1143,829)"/>
<path d="M0 0 C19.14 0 38.28 0 58 0 C58 20.13 58 40.26 58 61 C72.19 61 86.38 61 101 61 C101 78.49 101 95.98 101 114 C86.81 114 72.62 114 58 114 C58.12013062 127.95029807 58.12013062 127.95029807 58.2578125 141.90039062 C58.31792359 147.59705201 58.37605889 153.29368189 58.421875 158.99047852 C58.45897799 163.58769217 58.50540287 168.18472895 58.55806351 172.78178978 C58.57647548 174.52825987 58.59163111 176.27476768 58.60334396 178.02129555 C57.99437251 196.65354822 57.99437251 196.65354822 65.6875 212.75 C72.87566855 216.63549652 81.04186852 216.40544381 89 216.625 C94.94 216.810625 94.94 216.810625 101 217 C101 232.18 101 247.36 101 263 C84.63637184 267.09090704 70.29536021 269.36499956 53.71826172 269.31567383 C51.50048108 269.31250069 49.28402515 269.33615568 47.06640625 269.36132812 C27.14702316 269.44972308 7.37458554 265.57633785 -7.75 251.75 C-21.08991953 237.60721494 -19.413244 217.42262583 -19.29296875 199.44921875 C-19.28736495 196.97915404 -19.28309856 194.50908597 -19.28010559 192.03901672 C-19.26871859 185.57657466 -19.23930479 179.11433882 -19.20599365 172.65197754 C-19.17515964 166.04210193 -19.16157189 159.43219261 -19.14648438 152.82226562 C-19.11442876 139.8814058 -19.06171154 126.94075241 -19 114 C-28.24 114 -37.48 114 -47 114 C-47 96.51 -47 79.02 -47 61 C-36.77 61 -26.54 61 -16 61 C-15.46890625 58.67066406 -14.9378125 56.34132813 -14.390625 53.94140625 C-11.81193553 42.85915516 -8.77096474 31.90561489 -5.75 20.9375 C-3.8525 14.028125 -1.955 7.11875 0 0 Z " fill="#7FDD66" transform="translate(1629,748)"/>
<path d="M0 0 C25.41 0 50.82 0 77 0 C77 92.4 77 184.8 77 280 C51.59 280 26.18 280 0 280 C0 187.6 0 95.2 0 0 Z " fill="#7FDD66" transform="translate(1469,733)"/>
<path d="M0 0 C25.41 0 50.82 0 77 0 C77 67.32 77 134.64 77 204 C51.59 204 26.18 204 0 204 C0 136.68 0 69.36 0 0 Z " fill="#7FDD66" transform="translate(316,809)"/>
<path d="M0 0 C25.41 0 50.82 0 77 0 C77 17.49 77 34.98 77 53 C51.59 53 26.18 53 0 53 C0 35.51 0 18.02 0 0 Z " fill="#81DD67" transform="translate(316,733)"/>
<path d="M0 0 C1.27642955 12.69062933 1.27642955 12.69062933 -1.76715088 18.19720459 C-4.36376989 21.30857042 -7.08866374 24.12649554 -10.0078125 26.9296875 C-11.05278604 27.97970107 -12.09537776 29.03208982 -13.13571167 30.08670044 C-15.31357186 32.27757223 -17.5153818 34.43984531 -19.73876953 36.58447266 C-22.56718085 39.31619485 -25.32843655 42.10595334 -28.07489204 44.91978264 C-30.21497878 47.0993493 -32.38580054 49.24609345 -34.56698227 51.38446426 C-35.59745596 52.40137648 -36.61892123 53.42751256 -37.63037491 54.46334457 C-43.17753795 60.10378094 -47.5548463 63.52073764 -55.74169922 64.12939453 C-57.82824255 64.132796 -59.9161772 64.10656991 -62 64 C-61.93364601 65.30942062 -61.93364601 65.30942062 -61.86595154 66.64529419 C-61.8829067 75.58667111 -63.85100755 80.53823634 -70.02125549 86.9045105 C-71.024025 87.89396223 -72.02870931 88.8814766 -73.03515625 89.8671875 C-74.07324563 90.92170193 -75.10962726 91.97789992 -76.14439392 93.03567505 C-78.31011995 95.23390855 -80.49804586 97.40648392 -82.7043457 99.56396484 C-85.50899633 102.31134033 -88.24275411 105.11890511 -90.96244144 107.95010185 C-93.08512597 110.14279981 -95.24459766 112.29620706 -97.41616631 114.44040298 C-98.43967263 115.46081514 -99.45127687 116.4933316 -100.44948006 117.53850937 C-105.50555597 122.79459775 -109.84629835 126.38933183 -117.34763908 126.69684219 C-120.5788902 126.60093716 -123.78218829 126.30143986 -127 126 C-127.78886606 119.53371875 -128.45963549 113.6672111 -125.27235413 107.84305 C-122.69691215 104.7455424 -119.9512023 101.90825473 -117.06445312 99.10766602 C-115.99371283 98.01491826 -114.92617373 96.9190261 -113.86158752 95.82028198 C-110.97970167 92.86618449 -108.05279956 89.96106589 -105.1127758 87.06496167 C-102.65498279 84.63463863 -100.22163877 82.18055453 -97.78806734 79.72601455 C-92.04317501 73.93175145 -86.2618844 68.17576583 -80.45458984 62.4440918 C-74.48147299 56.54774374 -68.56644324 50.59750432 -62.67825174 44.61644036 C-57.60415962 39.46551146 -52.49928698 34.34663316 -47.36807394 29.25260299 C-44.31103678 26.21754492 -41.26579481 23.17281518 -38.24842834 20.09826851 C-35.40761847 17.20697971 -32.52990981 14.35813044 -29.62028313 11.53615952 C-28.56500489 10.50028197 -27.52280939 9.45086055 -26.49595833 8.38679695 C-18.18415568 -0.19914291 -11.48435918 -1.30538015 0 0 Z " fill="#7CDA64" transform="translate(1237,458)"/>
<path d="M0 0 C2.90014735 10.54453678 4.20055988 22.48438599 -1.33235168 32.38383484 C-9.54752362 44.66618541 -20.65105348 54.97099926 -31.25 65.16113281 C-35.74762732 69.48767412 -40.09558226 73.93677708 -44.42044449 78.43514633 C-74.08895235 109.10570847 -74.08895235 109.10570847 -90.4883728 109.48648071 C-96.11860377 109.32320014 -101.56958924 108.49356882 -107 107 C-102.03355231 101.0090753 -96.66153546 95.51991803 -91.1550293 90.02563477 C-90.1703512 89.03959923 -89.18588544 88.05335162 -88.20161438 87.06690979 C-85.54728744 84.40805288 -82.88984237 81.75233368 -80.2316587 79.09733319 C-77.44662259 76.31483942 -74.664039 73.52989475 -71.88105774 70.74534607 C-67.21506279 66.0775367 -62.54697369 61.41182942 -57.87768555 56.74731445 C-52.47364445 51.34873373 -47.07324102 45.94653415 -41.67467564 40.54247814 C-37.0360746 35.899348 -32.39553893 31.25815817 -27.753362 26.61860317 C-24.98184655 23.84864916 -22.21101709 21.07801803 -19.44193077 18.30563545 C-16.84470048 15.70552876 -14.24505972 13.10785703 -11.64349174 10.51209068 C-10.22862479 9.09918775 -8.81623429 7.6838063 -7.40390015 6.26837158 C-6.56978104 5.4370723 -5.73566193 4.60577301 -4.87626648 3.74928284 C-4.1475468 3.02094018 -3.41882711 2.29259752 -2.66802502 1.54218388 C-1 0 -1 0 0 0 Z " fill="#7BDA64" transform="translate(1174,414)"/>
<path d="M0 0 C-0.45281458 4.80694 -2.36633868 6.86860475 -5.72492981 10.23286438 C-6.46926813 10.98656265 -6.46926813 10.98656265 -7.2286436 11.75548714 C-8.89278775 13.43557778 -10.57085536 15.1010178 -12.24926758 16.7668457 C-13.44571223 17.96871064 -14.64130429 19.17142483 -15.83610535 20.37492371 C-19.08307537 23.64013891 -22.34258333 26.89256289 -25.60501695 30.14231896 C-29.01510059 33.54228359 -32.41542309 36.95198752 -35.81730652 40.3601532 C-41.53093661 46.08106188 -47.25295263 51.79348131 -52.97973633 57.5012207 C-59.60548448 64.10518943 -66.2166851 70.72345921 -72.82053262 77.34932262 C-78.48710426 83.03402972 -84.16141337 88.71092505 -89.84229583 94.38133115 C-93.2369448 97.76973636 -96.62881505 101.16080433 -100.01374245 104.55892372 C-103.19515427 107.75186672 -106.38614666 110.93491039 -109.58488655 114.1104908 C-110.75902609 115.27932911 -111.92975242 116.45160734 -113.09683609 117.627491 C-114.68688521 119.22842275 -116.28866204 120.81659638 -117.89411926 122.40205383 C-118.78880322 123.29522969 -119.68348719 124.18840555 -120.60528278 125.10864735 C-123 127 -123 127 -127 127 C-128.48824719 118.90716994 -129.56910673 110.58884472 -125.39874268 103.13989258 C-120.48052159 96.47629906 -114.53899294 90.80143242 -108.52130127 85.14672852 C-106.57499355 83.2832372 -104.7012638 81.35406004 -102.82280922 79.42258453 C-87.04504139 63.29050642 -87.04504139 63.29050642 -77.55870056 62.40020752 C-75.4232252 62.39111318 -73.35982856 62.50555851 -71.23608398 62.71972656 C-67.85176005 63.35214737 -67.85176005 63.35214737 -65 61 C-65.10858878 59.18974555 -65.22927884 57.37931281 -65.41448975 55.57528687 C-66.04658827 46.74394389 -63.52702069 41.37208115 -57.84899902 34.67572021 C-54.24210007 30.75821268 -50.52991057 26.97442413 -46.70654297 23.27050781 C-44.23220927 20.87065137 -41.85502206 18.39443027 -39.490242 15.88720322 C-27.20946519 2.97205123 -18.120548 -3.42121543 0 0 Z " fill="#7BDA64" transform="translate(1174,394)"/>
<path d="M0 0 C-4.64902035 5.58110852 -9.60232548 10.74473295 -14.7434082 15.87280273 C-15.60099228 16.73213913 -16.45857635 17.59147552 -17.34214783 18.47685242 C-19.67462785 20.81295807 -22.00930757 23.14681924 -24.34519219 25.4795177 C-26.79390321 27.92568342 -29.24015827 30.37430328 -31.68681335 32.82252502 C-35.78786766 36.92539264 -39.89101313 41.02616007 -43.99536133 45.12573242 C-48.7450252 49.86993348 -53.49104656 54.61775563 -58.23523456 59.36743206 C-62.31333079 63.45005741 -66.39336125 67.53074208 -70.47503346 71.60979229 C-72.91120083 74.04439856 -75.34668238 76.47968055 -77.7804203 78.91671562 C-80.48528445 81.62498923 -83.19419967 84.32918745 -85.90356445 87.03295898 C-86.7134079 87.84482666 -87.52325134 88.65669434 -88.3576355 89.49316406 C-89.09078476 90.2234935 -89.82393402 90.95382294 -90.57929993 91.70628357 C-91.53964126 92.66605937 -91.53964126 92.66605937 -92.51938343 93.64522457 C-94 95 -94 95 -95 95 C-97.55657803 83.63826297 -98.99004493 70.92462518 -92.50006104 60.6506958 C-85.61930209 50.96223047 -76.96043174 42.66212403 -68.39477539 34.48364258 C-64.55305123 30.81322822 -60.86361277 27.02232159 -57.19479561 23.18009377 C-39.58181635 4.86695252 -26.450555 -7.33125307 0 0 Z " fill="#7CDA64" transform="translate(1205,458)"/>
<path d="M0 0 C0 10.56 0 21.12 0 32 C-10.56 32 -21.12 32 -32 32 C-28.08794426 27.43593497 -24.22148312 23.07192764 -19.98046875 18.84765625 C-19.43642899 18.30265976 -18.89238922 17.75766327 -18.3318634 17.19615173 C-17.19618322 16.05979763 -16.05926575 14.92467879 -14.92114258 13.79077148 C-13.17085124 12.04590282 -11.42604674 10.29567217 -9.68164062 8.54492188 C-8.57323772 7.43717867 -7.46452524 6.3297451 -6.35546875 5.22265625 C-5.83260788 4.69777115 -5.30974701 4.17288605 -4.77104187 3.63209534 C-1.114991 0 -1.114991 0 0 0 Z " fill="#7AD662" transform="translate(1174,552)"/>
<path d="M0 0 C0 10.56 0 21.12 0 32 C-10.56 32 -21.12 32 -32 32 C-28.08794426 27.43593497 -24.22148312 23.07192764 -19.98046875 18.84765625 C-19.43642899 18.30265976 -18.89238922 17.75766327 -18.3318634 17.19615173 C-17.19618322 16.05979763 -16.05926575 14.92467879 -14.92114258 13.79077148 C-13.17085124 12.04590282 -11.42604674 10.29567217 -9.68164062 8.54492188 C-8.57323772 7.43717867 -7.46452524 6.3297451 -6.35546875 5.22265625 C-5.83260788 4.69777115 -5.30974701 4.17288605 -4.77104187 3.63209534 C-1.114991 0 -1.114991 0 0 0 Z " fill="#7AD863" transform="translate(1237,489)"/>
<path d="M0 0 C8.58 0 17.16 0 26 0 C24.01480764 3.97038472 22.16648631 6.09134532 19.0625 9.203125 C18.58176025 9.6857782 18.10102051 10.1684314 17.60571289 10.66571045 C16.59278907 11.67999064 15.57735362 12.69176804 14.55957031 13.70117188 C12.99826835 15.25171972 11.44797503 16.81270503 9.8984375 18.375 C8.91209939 19.36001734 7.9251415 20.34441453 6.9375 21.328125 C6.03902344 22.2243457 5.14054687 23.12056641 4.21484375 24.04394531 C2 26 2 26 0 26 C0 17.42 0 8.84 0 0 Z " fill="#75CD5F" transform="translate(1110,394)"/>
<path d="M0 0 C8.25 0 16.5 0 25 0 C23.00733576 3.98532848 21.15403579 6.09063128 18.02734375 9.203125 C17.54423233 9.6857782 17.06112091 10.1684314 16.56336975 10.66571045 C15.54615946 11.67991024 14.52653039 12.69168919 13.50463867 13.70117188 C11.93410245 15.25335786 10.37180962 16.81349204 8.81054688 18.375 C1.14751637 26 1.14751637 26 0 26 C0 17.42 0 8.84 0 0 Z " fill="#79D662" transform="translate(1047,458)"/>
<path d="M0 0 C0.66 0.33 1.32 0.66 2 1 C-2.29 5.29 -6.58 9.58 -11 14 C-11.66 13.67 -12.32 13.34 -13 13 C-4.738041 3.40546697 -4.738041 3.40546697 0 0 Z " fill="#9DCD6A" transform="translate(979,827)"/>
<path d="M0 0 C0.66 0.33 1.32 0.66 2 1 C-3 6 -8 11 -13 16 C-10.91001677 9.10305533 -5.67770873 4.17478583 0 0 Z " fill="#A2CB6E" transform="translate(451,909)"/>
<path d="M0 0 C0.66 0.33 1.32 0.66 2 1 C-2.29 5.29 -6.58 9.58 -11 14 C-11 9.40845608 -8.09282279 7.18698368 -5 4 C-3.3719908 2.61973133 -1.71956118 1.26438322 0 0 Z " fill="#A4CF71" transform="translate(1220,909)"/>
</svg>
